<svg xmlns="http://www.w3.org/2000/svg" version="1.1" xmlns:xlink="http://www.w3.org/1999/xlink" xmlns:svgjs="http://svgjs.dev/svgjs" width="1000" height="623" viewBox="0 0 1000 623"><g transform="matrix(1,0,0,1,-0.6060606060606233,0.2522267206477409)"><svg viewBox="0 0 396 247" data-background-color="#000000" preserveAspectRatio="xMidYMid meet" height="623" width="1000" xmlns="http://www.w3.org/2000/svg" xmlns:xlink="http://www.w3.org/1999/xlink"><g id="tight-bounds" transform="matrix(1,0,0,1,0.2400000000000091,-0.09999999999999432)"><svg viewBox="0 0 395.52 247.2" height="247.2" width="395.52"><g><svg></svg></g><g><svg viewBox="0 0 395.52 247.2" height="247.2" width="395.52"><g transform="matrix(1,0,0,1,39.55199999999999,65.81427331266396)"><svg viewBox="0 0 316.416 115.57145337467207" height="115.57145337467207" width="316.416"><g><svg viewBox="0 0 316.416 115.57145337467207" height="115.57145337467207" width="316.416"><g><svg viewBox="0 0 316.416 115.57145337467207" height="115.57145337467207" width="316.416"><g><svg viewBox="0 0 316.416 115.57145337467207" height="115.57145337467207" width="316.416"><g><svg viewBox="0 0 316.416 115.57145337467207" height="115.57145337467207" width="316.416"><g><svg viewBox="0 0 316.416 115.57145337467207" height="115.57145337467207" width="316.416"><g transform="matrix(1,0,0,1,0,0)"><svg width="316.416" viewBox="0.8833333253860474 -39.04999923706055 139.7566680908203 51.04999923706055" height="115.57145337467207" data-palette-color="#390037"><path d="M3.45 0L3.45 0Q2.05 0 1.3-1.2 0.55-2.4 1.15-3.75L1.15-3.75 15.2-37.3Q15.95-39.05 17.65-39.05L17.65-39.05Q19.45-39.05 20.1-37.3L20.1-37.3 34.2-3.65Q34.75-2.25 34.02-1.13 33.3 0 31.85 0L31.85 0Q31.1 0 30.43-0.43 29.75-0.85 29.45-1.6L29.45-1.6 17.05-32.4 18.45-32.4 5.85-1.6Q5.5-0.8 4.83-0.4 4.15 0 3.45 0ZM29.7-8.6L6.1-8.6 8.1-12.9 27.7-12.9 29.7-8.6ZM44.55 12L44.55 12Q44.05 12 43.35 11.7L43.35 11.7Q41.15 10.7 42.15 8.55L42.15 8.55 57.4-25.9Q58.4-28 60.55-27.1L60.55-27.1Q62.8-26.15 61.8-23.95L61.8-23.95 46.5 10.45Q45.9 12 44.55 12ZM50.45-1.1L50.45-1.1Q49.5-0.7 48.67-1.03 47.85-1.35 47.35-2.3L47.35-2.3 35.9-24.05Q35.4-25 35.77-25.88 36.15-26.75 37.1-27.15L37.1-27.15Q38.05-27.55 38.9-27.23 39.75-26.9 40.2-25.95L40.2-25.95 51.15-4.2Q51.65-3.25 51.52-2.38 51.4-1.5 50.45-1.1ZM71.59-17.1L69.05-17.1Q69.05-20.1 70.52-22.48 72-24.85 74.5-26.25 77-27.65 80-27.65L80-27.65Q83-27.65 84.47-26.68 85.95-25.7 85.59-24.35L85.59-24.35Q85.45-23.65 85.02-23.28 84.59-22.9 84.05-22.8 83.5-22.7 82.84-22.85L82.84-22.85Q79.65-23.5 77.09-22.95 74.55-22.4 73.07-20.9 71.59-19.4 71.59-17.1L71.59-17.1ZM69.09 0L69.09 0Q67.9 0 67.25-0.63 66.59-1.25 66.59-2.5L66.59-2.5 66.59-24.85Q66.59-26.05 67.25-26.7 67.9-27.35 69.09-27.35L69.09-27.35Q70.34-27.35 70.97-26.73 71.59-26.1 71.59-24.85L71.59-24.85 71.59-2.5Q71.59-1.3 70.97-0.65 70.34 0 69.09 0ZM101.74 0.2L101.74 0.2Q97.59 0.2 94.37-1.58 91.14-3.35 89.32-6.48 87.49-9.6 87.49-13.65L87.49-13.65Q87.49-17.75 89.22-20.88 90.94-24 93.99-25.78 97.04-27.55 100.99-27.55L100.99-27.55Q104.89-27.55 107.69-25.83 110.49-24.1 111.97-21.08 113.44-18.05 113.44-14.1L113.44-14.1Q113.44-13.15 112.79-12.53 112.14-11.9 111.14-11.9L111.14-11.9 90.99-11.9 90.99-15.9 110.99-15.9 108.94-14.5Q108.89-17 107.94-18.98 106.99-20.95 105.24-22.1 103.49-23.25 100.99-23.25L100.99-23.25Q98.14-23.25 96.12-22 94.09-20.75 93.04-18.57 91.99-16.4 91.99-13.65L91.99-13.65Q91.99-10.9 93.24-8.75 94.49-6.6 96.69-5.35 98.89-4.1 101.74-4.1L101.74-4.1Q103.29-4.1 104.92-4.67 106.54-5.25 107.54-6L107.54-6Q108.29-6.55 109.17-6.58 110.04-6.6 110.69-6.05L110.69-6.05Q111.54-5.3 111.59-4.4 111.64-3.5 110.79-2.85L110.79-2.85Q109.09-1.5 106.57-0.65 104.04 0.2 101.74 0.2ZM129.89 0.2L129.89 0.2Q126.39 0.2 123.42-0.88 120.44-1.95 118.79-3.6L118.79-3.6Q118.04-4.4 118.17-5.43 118.29-6.45 119.14-7.1L119.14-7.1Q120.14-7.9 121.12-7.78 122.09-7.65 122.79-6.9L122.79-6.9Q123.64-5.95 125.52-5.13 127.39-4.3 129.69-4.3L129.69-4.3Q132.59-4.3 134.12-5.25 135.64-6.2 135.69-7.7L135.69-7.7Q135.74-9.2 134.27-10.3 132.79-11.4 128.89-12.1L128.89-12.1Q123.84-13.1 121.57-15.1 119.29-17.1 119.29-20L119.29-20Q119.29-22.55 120.79-24.23 122.29-25.9 124.64-26.73 126.99-27.55 129.54-27.55L129.54-27.55Q132.84-27.55 135.39-26.5 137.94-25.45 139.44-23.6L139.44-23.6Q140.14-22.8 140.09-21.93 140.04-21.05 139.24-20.45L139.24-20.45Q138.44-19.9 137.34-20.1 136.24-20.3 135.49-21L135.49-21Q134.24-22.2 132.79-22.65 131.34-23.1 129.44-23.1L129.44-23.1Q127.24-23.1 125.72-22.35 124.19-21.6 124.19-20.15L124.19-20.15Q124.19-19.25 124.67-18.53 125.14-17.8 126.54-17.23 127.94-16.65 130.64-16.1L130.64-16.1Q134.39-15.35 136.56-14.2 138.74-13.05 139.69-11.53 140.64-10 140.64-8L140.64-8Q140.64-5.7 139.42-3.85 138.19-2 135.81-0.9 133.44 0.2 129.89 0.2Z" opacity="1" transform="matrix(1,0,0,1,0,0)" fill="#390037" class="undefined-text-0" data-fill-palette-color="primary" id="text-0"></path></svg></g></svg></g></svg></g></svg></g><g></g></svg></g></svg></g></svg></g><g mask="url(#920a38a6-6020-42ed-92b9-6a7bc41e11c0)"><g transform="matrix(3.230966915890932, 0, 0, 3.230966915890932, 55.12728779712583, 1)"><svg xmlns="http://www.w3.org/2000/svg" xmlns:xlink="http://www.w3.org/1999/xlink" version="1.1" x="0" y="0" viewBox="6.8470778465271 16.309406280517578 88.2910385131836 75.89059448242188" style="enable-background:new 0 0 100 100;" xml:space="preserve" height="75.89059448242188" width="88.2910385131836" class="icon-none" data-fill-palette-color="accent" id="none"><path d="M21.1 92.2c-2.7 0-5.4-0.8-7.9-2.4C8 86.3 5.7 80.2 7.4 74.2l11.5-41.9c1.5-5.6 6.3-9.7 12.1-10.4l48.3-5.5c6.5-0.7 12.3 2.7 14.7 8.7 2.5 6 0.8 12.5-4.3 16.6L29.9 89C27.3 91.1 24.2 92.2 21.1 92.2zM79.6 19.4l-48.3 5.5c-4.6 0.5-8.3 3.7-9.5 8.2L10.3 74.9c-1.6 5.8 1.4 10.1 4.6 12.3 3.3 2.2 8.4 3.2 13.1-0.6l59.8-47.4c4.9-3.9 4.9-9.5 3.4-13.1C89.7 22.6 85.8 18.6 79.6 19.4L79.6 19.4z" fill="#ffffff" data-fill-palette-color="accent"></path></svg></g></g></svg></g><defs><mask id="8b65c660-b35d-45ae-9931-93aa487ac74f"><rect width="640" height="400" fill="white"></rect><rect width="348.05760000000004" height="170.13874622843025" fill="black" x="145.97119999999998" y="114.93062688578487" id="transform-me" transform="matrix(1,0,0,1,-122.24000000000001,-76.4)"></rect></mask><mask id="39ba9638-63d0-4985-b46e-9f041cda8743"><rect width="640" height="400" fill="white"></rect><rect width="348.05760000000004" height="170.13874622843025" fill="black" x="145.97119999999998" y="114.93062688578487" id="transform-me" transform="matrix(1,0,0,1,-122.24000000000001,-76.4)"></rect></mask><mask id="838b6415-be25-4cbe-9e41-719ddbad1571"><rect width="640" height="400" fill="white"></rect><rect width="348.05760000000004" height="170.13874622843025" fill="black" x="145.97119999999998" y="114.93062688578487" id="transform-me" transform="matrix(1,0,0,1,-122.24000000000001,-76.4)"></rect></mask><mask id="3fb064ef-f9fe-4d3e-aa83-d76440649919"><rect width="640" height="400" fill="white"></rect><rect width="348.05760000000004" height="170.13874622843025" fill="black" x="145.97119999999998" y="114.93062688578487" id="transform-me" transform="matrix(1,0,0,1,-122.24000000000001,-76.4)"></rect></mask><mask id="50e1e53d-3017-4036-a756-00c7883af82c"><rect width="640" height="400" fill="white"></rect><rect width="348.05760000000004" height="170.13874622843025" fill="black" x="145.97119999999998" y="114.93062688578487" id="transform-me" transform="matrix(1,0,0,1,-122.24000000000001,-76.4)"></rect></mask><mask id="f690cec6-3edb-40d0-a020-031f6849cc8e"><rect width="640" height="400" fill="white"></rect><rect width="348.05760000000004" height="170.13874622843025" fill="black" x="145.97119999999998" y="114.93062688578487" id="transform-me" transform="matrix(1,0,0,1,-122.24000000000001,-76.4)"></rect></mask><mask id="42b733af-306a-44b5-b38e-39517875b790"><rect width="640" height="400" fill="white"></rect><rect width="348.05760000000004" height="170.13874622843025" fill="black" x="145.97119999999998" y="114.93062688578487" id="transform-me" transform="matrix(1,0,0,1,-122.24000000000001,-76.4)"></rect></mask><mask id="ce2e800b-0f10-420f-beb8-ddbf32b0c30c"><rect width="640" height="400" fill="white"></rect><rect width="348.05760000000004" height="170.13874622843025" fill="black" x="145.97119999999998" y="114.93062688578487" id="transform-me" transform="matrix(1,0,0,1,-122.24000000000001,-76.4)"></rect></mask><mask id="f1627b56-1841-4940-b04e-17ec4c0df83d"><rect width="640" height="400" fill="white"></rect><rect width="348.05760000000004" height="170.13874622843025" fill="black" x="145.97119999999998" y="114.93062688578487" id="transform-me" transform="matrix(1,0,0,1,-122.24000000000001,-76.4)"></rect></mask><mask id="f1c59236-7c3e-4c66-9d27-0dcea196c3c7"><rect width="640" height="400" fill="white"></rect><rect width="348.05760000000004" height="170.13874622843025" fill="black" x="145.97119999999998" y="114.93062688578487" id="transform-me" transform="matrix(1,0,0,1,-122.24000000000001,-76.4)"></rect></mask><mask id="aabc6160-3e50-4d60-878a-d1d56d066504"><rect width="640" height="400" fill="white"></rect><rect width="348.05760000000004" height="170.13874622843025" fill="black" x="145.97119999999998" y="114.93062688578487" id="transform-me" transform="matrix(1,0,0,1,-122.24000000000001,-76.4)"></rect></mask><mask id="7dece4c0-9035-40cf-8c27-2361c9bfc0fb"><rect width="640" height="400" fill="white"></rect><rect width="348.05760000000004" height="170.13874622843025" fill="black" x="145.97119999999998" y="114.93062688578487" id="transform-me" transform="matrix(1,0,0,1,-122.24000000000001,-76.4)"></rect></mask><mask id="20d69a76-ca24-4da2-a942-63c9ff0eabc1"><rect width="640" height="400" fill="white"></rect><rect width="348.05760000000004" height="170.13874622843025" fill="black" x="145.97119999999998" y="114.93062688578487" id="transform-me" transform="matrix(1,0,0,1,-122.24000000000001,-76.4)"></rect></mask><mask id="0009a772-e214-4b9a-98c2-591a331f4565"><rect width="640" height="400" fill="white"></rect><rect width="348.05760000000004" height="170.13874622843025" fill="black" x="145.97119999999998" y="114.93062688578487" id="transform-me" transform="matrix(1,0,0,1,-122.24000000000001,-76.4)"></rect></mask><mask id="8af8c99b-ff81-4e4f-9e43-88195d75d6a5"><rect width="640" height="400" fill="white"></rect><rect width="348.05760000000004" height="170.13874622843025" fill="black" x="145.97119999999998" y="114.93062688578487" id="transform-me" transform="matrix(1,0,0,1,-122.24000000000001,-76.4)"></rect></mask><mask id="0df2dd3a-8f34-4cba-99d0-cb6857dfeb8b"><rect width="640" height="400" fill="white"></rect><rect width="348.05760000000004" height="170.13874622843025" fill="black" x="145.97119999999998" y="114.93062688578487" id="transform-me" transform="matrix(1,0,0,1,-122.24000000000001,-76.4)"></rect></mask><mask id="16840450-1241-42c7-9420-57f38b67f135"><rect width="640" height="400" fill="white"></rect><rect width="348.05760000000004" height="170.13874622843025" fill="black" x="145.97119999999998" y="114.93062688578487" id="transform-me" transform="matrix(1,0,0,1,-122.24000000000001,-76.4)"></rect></mask><mask id="be734252-42ee-4e38-89f9-a32c0087ac54"><rect width="640" height="400" fill="white"></rect><rect width="348.05760000000004" height="170.13874622843025" fill="black" x="145.97119999999998" y="114.93062688578487" id="transform-me" transform="matrix(1,0,0,1,-122.24000000000001,-76.4)"></rect></mask><mask id="30f3920d-a943-45b8-8b52-19096b1d5811"><rect width="640" height="400" fill="white"></rect><rect width="348.05760000000004" height="170.13874622843025" fill="black" x="145.97119999999998" y="114.93062688578487" id="transform-me" transform="matrix(1,0,0,1,-122.24000000000001,-76.4)"></rect></mask><mask id="61c4f5d8-070c-4c01-9528-63151d8ea269"><rect width="640" height="400" fill="white"></rect><rect width="348.05760000000004" height="170.13874622843025" fill="black" x="145.97119999999998" y="114.93062688578487" id="transform-me" transform="matrix(1,0,0,1,-122.24000000000001,-76.4)"></rect></mask><mask id="f5fb4b89-5de9-4c9d-973b-b7b6cc538721"><rect width="640" height="400" fill="white"></rect><rect width="348.05760000000004" height="170.13874622843025" fill="black" x="145.97119999999998" y="114.93062688578487" id="transform-me" transform="matrix(1,0,0,1,-122.24000000000001,-76.4)"></rect></mask><mask id="6aa81d7a-0d90-4c9b-a4e5-fe339cb0ed83"><rect width="640" height="400" fill="white"></rect><rect width="348.05760000000004" height="170.13874622843025" fill="black" x="145.97119999999998" y="114.93062688578487" id="transform-me" transform="matrix(1,0,0,1,-122.24000000000001,-76.4)"></rect></mask><mask id="601f4493-ae90-434a-9d67-3929f0f0238d"><rect width="640" height="400" fill="white"></rect><rect width="348.05760000000004" height="170.13874622843025" fill="black" x="145.97119999999998" y="114.93062688578487" id="transform-me" transform="matrix(1,0,0,1,-122.24000000000001,-76.4)"></rect></mask><mask id="5587bce4-e020-4dfa-ad4b-8cf7d79a6aa1"><rect width="640" height="400" fill="white"></rect><rect width="348.05760000000004" height="170.13874622843025" fill="black" x="145.97119999999998" y="114.93062688578487" id="transform-me" transform="matrix(1,0,0,1,-122.24000000000001,-76.4)"></rect></mask><mask id="da9cad30-d675-4d4d-8526-a13e55d64ccf"><rect width="640" height="400" fill="white"></rect><rect width="348.05760000000004" height="170.13874622843025" fill="black" x="145.97119999999998" y="114.93062688578487" id="transform-me" transform="matrix(1,0,0,1,-122.24000000000001,-76.4)"></rect></mask><mask id="c6e6846f-9792-4e41-859f-e4d3e29b2b11"><rect width="640" height="400" fill="white"></rect><rect width="348.05760000000004" height="170.13874622843025" fill="black" x="145.97119999999998" y="114.93062688578487" id="transform-me" transform="matrix(1,0,0,1,-122.24000000000001,-76.4)"></rect></mask><mask id="9db0cb50-83c5-4d51-8a5d-c21910951d93"><rect width="640" height="400" fill="white"></rect><rect width="348.05760000000004" height="170.13874622843025" fill="black" x="145.97119999999998" y="114.93062688578487" id="transform-me" transform="matrix(1,0,0,1,-122.24000000000001,-76.4)"></rect></mask><mask id="6c1a8740-afdd-4293-b3eb-72ef9979a28d"><rect width="640" height="400" fill="white"></rect><rect width="348.05760000000004" height="170.13874622843025" fill="black" x="145.97119999999998" y="114.93062688578487" id="transform-me" transform="matrix(1,0,0,1,-122.24000000000001,-76.4)"></rect></mask><mask id="29ed96dd-ca98-4e8b-9e82-682054467bc5"><rect width="640" height="400" fill="white"></rect><rect width="348.05760000000004" height="170.13874622843025" fill="black" x="145.97119999999998" y="114.93062688578487" id="transform-me" transform="matrix(1,0,0,1,-122.24000000000001,-76.4)"></rect></mask><mask id="c05bf775-9ea5-4275-9d90-c7369a6c22d0"><rect width="640" height="400" fill="white"></rect><rect width="348.05760000000004" height="170.13874622843025" fill="black" x="145.97119999999998" y="114.93062688578487" id="transform-me" transform="matrix(1,0,0,1,-122.24000000000001,-76.4)"></rect></mask><mask id="9129b415-c8e2-4702-b998-8c0ed0b7d91f"><rect width="640" height="400" fill="white"></rect><rect width="348.05760000000004" height="170.13874622843025" fill="black" x="145.97119999999998" y="114.93062688578487" id="transform-me" transform="matrix(1,0,0,1,-122.24000000000001,-76.4)"></rect></mask><mask id="eb16c400-a5f6-418a-951b-7dd941fd7869"><rect width="640" height="400" fill="white"></rect><rect width="348.05760000000004" height="170.13874622843025" fill="black" x="145.97119999999998" y="114.93062688578487" id="transform-me" transform="matrix(1,0,0,1,-122.24000000000001,-76.4)"></rect></mask><mask id="7df09f63-b625-4b4d-9d2f-ed02aef4ebba"><rect width="640" height="400" fill="white"></rect><rect width="348.05760000000004" height="170.13874622843025" fill="black" x="145.97119999999998" y="114.93062688578487" id="transform-me" transform="matrix(1,0,0,1,-122.24000000000001,-76.4)"></rect></mask><mask id="aabd5abb-a301-42fc-94d8-a9fc237eef3c"><rect width="640" height="400" fill="white"></rect><rect width="348.05760000000004" height="115.14572802109383" fill="black" x="145.97119999999998" y="142.4271359894531" id="transform-me" transform="matrix(1,0,0,1,-122.24000000000001,-76.4)"></rect></mask><mask id="5944193b-0c81-40e9-9db1-52341ac0b8bd"><rect width="640" height="400" fill="white"></rect><rect width="348.05760000000004" height="170.13874622843025" fill="black" x="145.97119999999998" y="114.93062688578487" id="transform-me" transform="matrix(1,0,0,1,-122.24000000000001,-76.4)"></rect></mask><mask id="8dd3f06f-b343-4e94-9e37-72dcbe8cf602"><rect width="640" height="400" fill="white"></rect><rect width="348.05760000000004" height="115.14572802109383" fill="black" x="145.97119999999998" y="142.4271359894531" id="transform-me" transform="matrix(1,0,0,1,-122.24000000000001,-76.4)"></rect></mask><mask id="920a38a6-6020-42ed-92b9-6a7bc41e11c0"><rect width="640" height="400" fill="white"></rect><rect width="348.05760000000004" height="170.13874622843025" fill="black" x="145.97119999999998" y="114.93062688578487" id="transform-me" transform="matrix(1,0,0,1,-122.24000000000001,-76.4)"></rect></mask></defs></svg><rect width="395.52" height="247.2" fill="none" stroke="none" visibility="hidden"></rect></g></svg></g></svg>